<svg xmlns="http://www.w3.org/2000/svg" viewBox="0 0 240 140"><g stroke="#19191b" stroke-width="4" stroke-linecap="round" stroke-linejoin="round"><rect x="30" y="18" width="20" height="20" fill="#fff" stroke-width="1.5"/><rect x="30" y="38" width="20" height="20" fill="#e6ebff" stroke-width="1.5"/><rect x="30" y="58" width="20" height="20" fill="#fff" stroke-width="1.5"/><rect x="30" y="78" width="20" height="20" fill="#e6ebff" stroke-width="1.5"/><rect x="30" y="98" width="20" height="20" fill="#fff" stroke-width="1.5"/><rect x="50" y="18" width="20" height="20" fill="#e6ebff" stroke-width="1.5"/><rect x="50" y="38" width="20" height="20" fill="#fff" stroke-width="1.5"/><rect x="50" y="58" width="20" height="20" fill="#e6ebff" stroke-width="1.5"/><rect x="50" y="78" width="20" height="20" fill="#fff" stroke-width="1.5"/><rect x="50" y="98" width="20" height="20" fill="#e6ebff" stroke-width="1.5"/><rect x="70" y="18" width="20" height="20" fill="#fff" stroke-width="1.5"/><rect x="70" y="38" width="20" height="20" fill="#e6ebff" stroke-width="1.5"/><rect x="70" y="58" width="20" height="20" fill="#fff" stroke-width="1.5"/><rect x="70" y="78" width="20" height="20" fill="#e6ebff" stroke-width="1.5"/><rect x="70" y="98" width="20" height="20" fill="#fff" stroke-width="1.5"/><rect x="90" y="18" width="20" height="20" fill="#e6ebff" stroke-width="1.5"/><rect x="90" y="38" width="20" height="20" fill="#fff" stroke-width="1.5"/><rect x="90" y="58" width="20" height="20" fill="#e6ebff" stroke-width="1.5"/><rect x="90" y="78" width="20" height="20" fill="#fff" stroke-width="1.5"/><rect x="90" y="98" width="20" height="20" fill="#e6ebff" stroke-width="1.5"/><rect x="110" y="18" width="20" height="20" fill="#fff" stroke-width="1.5"/><rect x="110" y="38" width="20" height="20" fill="#e6ebff" stroke-width="1.5"/><rect x="110" y="58" width="20" height="20" fill="#fff" stroke-width="1.5"/><rect x="110" y="78" width="20" height="20" fill="#e6ebff" stroke-width="1.5"/><rect x="110" y="98" width="20" height="20" fill="#fff" stroke-width="1.5"/><rect x="130" y="18" width="20" height="20" fill="#e6ebff" stroke-width="1.5"/><rect x="130" y="38" width="20" height="20" fill="#fff" stroke-width="1.5"/><rect x="130" y="58" width="20" height="20" fill="#e6ebff" stroke-width="1.5"/><rect x="130" y="78" width="20" height="20" fill="#fff" stroke-width="1.5"/><rect x="130" y="98" width="20" height="20" fill="#e6ebff" stroke-width="1.5"/><rect x="49" y="37" width="60" height="60" fill="#ff458e" fill-opacity=".5"/><path d="M165 67h49m-12-12 12 12-12 12" fill="none"/><rect x="174" y="27" width="25" height="25" fill="#ffe53c"/></g></svg>